<?xml version="1.0" encoding="utf-8"?>
<!-- Generator: Adobe Illustrator 27.6.1, SVG Export Plug-In . SVG Version: 6.00 Build 0)  -->
<svg version="1.1" id="Layer_1" xmlns="http://www.w3.org/2000/svg" xmlns:xlink="http://www.w3.org/1999/xlink" x="0px" y="0px"
	 viewBox="0 0 538.7 586.5" style="enable-background:new 0 0 538.7 586.5;" xml:space="preserve">
<g>
	<path d="M61.8,85.1l29.7,30.1c1.1,1.1,1.9,1.8,2.4,1.9c0.2,0.1,0.6,0,1.2-0.2c1.6-0.7,4.1-2.8,7.6-6.2l0.6,0.6l-23,22.7l-0.6-0.6
		c1.7-1.7,3.1-3.1,4.2-4.5c1.1-1.3,1.8-2.3,2.1-2.9c0.3-0.6,0.4-1.1,0.2-1.5c-0.1-0.4-0.7-1.1-1.8-2.2L54.7,92.2
		c-1.1-1.1-1.8-1.7-2.3-1.8c-0.2-0.1-0.6,0-1.2,0.3c-1.6,0.7-4.1,2.8-7.6,6.2l-0.5-0.5l23-22.8l0.5,0.5c-1.7,1.7-3.1,3.1-4.2,4.5
		c-1.1,1.3-1.8,2.3-2.1,3L60,82.5C60,83,60.6,83.9,61.8,85.1z"/>
	<path d="M98.1,74.6c0.7-2.6,1.1-3.9,1.1-4.1l7.6,9.7l-0.6,0.3c-2.6-2.1-5.3-3.4-8.2-3.8c-3.1-0.5-5.6,0.1-7.6,1.7
		c-1.6,1.2-2.6,2.5-3.1,3.9c-0.7,1.9-0.3,3.7,1.2,5.6c1.2,1.6,2.9,2.2,5,1.9c1.5-0.2,4.1-1.1,7.7-2.8c3.7-1.7,6.5-2.5,8.5-2.5
		c2.8,0,5.4,1.5,7.8,4.5c2.2,2.8,2.8,5.6,2,8.4c-0.7,2.3-2.1,4.3-4.4,6.1c-1.9,1.5-3.4,2.4-4.4,2.8c-1.5,0.6-3.5,0.7-6.1,0.3
		c-0.1,3.4-0.2,5.1-0.2,5.3l-8.9-11.4l0.5-0.4c2.8,2.1,4.9,3.5,6.2,4.1c1.8,0.9,3.3,1.4,4.5,1.5c1.7,0.2,3.1,0,4.2-0.4
		c1.1-0.5,2.5-1.4,4.3-2.8c1.3-1,2.2-2.3,2.5-3.6c0.4-1.6,0-3.2-1.2-4.7c-1.5-1.9-3.3-2.8-5.5-2.7c-1.7,0.1-4.1,1-7.3,2.5
		c-3.2,1.6-6,2.3-8.5,2.3c-3-0.1-5.5-1.4-7.4-3.9c-1.7-2.2-2.5-4.7-2.2-7.5c0.3-2.8,1.6-5,3.8-6.7c1.7-1.3,3.4-2.2,5.1-2.6
		C96.5,75.1,97.8,74.7,98.1,74.6z"/>
	<path d="M125.3,70.9l8.2,14.3c0.5,1,1,1.5,1.3,1.7c0.2,0.1,0.5,0.1,0.9,0c0.4-0.1,1.1-0.3,2.1-0.7c1-0.4,1.8-0.9,2.5-1.3l0.4,0.6
		l-19,10.9l-0.4-0.6c1.4-0.8,2.6-1.6,3.6-2.3c1.1-0.7,1.9-1.5,2.5-2.2c0.1-0.4-0.1-1.2-0.8-2.3l-21.5-37.3c-0.4-0.6-0.7-1.1-0.9-1.6
		c-0.3-0.4-0.6-0.7-0.9-0.8c-0.6-0.3-1.1-0.4-1.4-0.3c-1,0.3-3,1.2-5.9,2.9l-0.4-0.6l12.9-9.1l14.5,25.2c-0.8-2.1-1.2-4.3-1.1-6.7
		c0.1-3,1.1-5.1,2.9-6.4c0.4-0.2,0.8-0.5,1.2-0.8c0.4-0.3,0.7-0.5,0.9-0.6c3.3-1.9,6.3-2.4,9-1.6c2.2,0.7,3.9,2.1,5.1,4.3l10.9,18.9
		c0.5,1,1,1.5,1.3,1.7c0.2,0.1,0.5,0.1,1,0c0.5-0.1,1.2-0.4,2.3-0.8c1-0.5,2.1-1,3.1-1.6l0.4,0.6L141.7,85l-0.4-0.6
		c0.8-0.4,1.6-1,2.5-1.7c0.9-0.7,1.7-1.4,2.3-2.1c0.1-0.4-0.1-1.2-0.8-2.3L134.3,59c-1.2-2-2.3-3.4-3.3-4.2
		c-1.6-1.2-3.3-1.3-5.1-0.2c-2,1.1-2.9,3.4-2.9,6.9C123.2,64.4,123.9,67.5,125.3,70.9z"/>
	<path d="M169.3,46.1l-1.7-4.5c-0.8-2.1-1.6-3.3-2.6-3.8c-0.9-0.5-2.5-0.3-4.6,0.5c-1.8,0.7-3.2,1.6-4.2,2.8
		c-1.1,1.2-1.6,2.4-1.6,3.7c0.2-0.1,0.4-0.3,0.7-0.4c1-0.4,1.9-0.3,2.8,0.2c0.9,0.5,1.5,1.3,1.9,2.3c0.4,1.1,0.4,2.2-0.1,3.2
		c-0.5,1-1.3,1.7-2.3,2.1c-0.7,0.3-1.3,0.3-2,0.1c-1.9-0.4-3.1-1.3-3.6-2.8c-0.3-0.7-0.4-1.6-0.5-2.6c0-2.3,1.2-4.4,3.7-6.4
		c1.8-1.4,3.7-2.6,5.8-3.4c3.8-1.4,6.9-1.8,9.4-1.1c2.2,0.6,3.7,1.9,4.4,3.8l6.5,16.9c1.2,3.1,2,4.9,2.4,5.6c1,1.6,2.3,2.1,3.8,1.5
		c1.3-0.5,2-1.5,1.9-3.1c-0.1-1.5-0.6-3.6-1.6-6.2c-0.3-0.7-0.6-1.4-0.9-2.1c-0.3-0.7-0.6-1.4-0.9-2.2l-0.3-0.7l0.9-0.4l1.3,3.4
		c0.4,1.1,0.8,2.1,1.2,3c1.1,3,1.5,5.1,1.2,6.4c-0.4,1.6-2.1,3-4.9,4.1c-2.2,0.8-4,1.1-5.4,0.7c-1.6-0.4-3.1-1.6-4.3-3.7
		c-0.1,2.9-1.1,5.2-2.9,6.9c-1.1,1-2.7,1.9-4.8,2.7c-2.1,0.8-4.2,1-6.2,0.6c-2.7-0.5-4.6-2.2-5.7-5c-1.1-2.8-0.9-5.5,0.5-8.2
		c1.4-2.7,3.6-4.7,6.6-6.1s4.9-2.6,5.7-3.6C170,49.5,170.1,48,169.3,46.1z M174.4,60l-3.9-10.2c-0.3,1.1-1,1.9-2.1,2.5
		c-1.1,0.6-2.2,1.2-3.3,1.8c-1.3,0.9-2.2,2.2-2.6,3.8c-0.4,1.9-0.1,4.3,0.9,7.1c1.1,3,2.2,4.9,3.2,5.7c1,0.8,2.1,1,3.4,0.5
		c1.9-0.7,3.4-2.2,4.3-4.4C175.2,64.6,175.3,62.4,174.4,60z"/>
	<path d="M246.4,31.5c1,7.9,0.3,13.8-2.2,17.8c-2.5,4-6.6,6.3-12.3,7.1c-6.4,0.9-12.2-0.4-17.1-3.7c-5.9-4-9.5-10.3-10.6-19
		c-1.1-8.5,0.6-15.8,5.3-22c4-5.3,8.6-8.3,13.9-9c2.6-0.3,4.8-0.2,6.9,0.5c2.6,0.9,5.1,2.5,7.5,5l3-8.2L241,0l3.1,23.6l-0.7-0.3
		c-0.9-7-3.6-12.3-8-16c-3.7-3.1-7.3-4.4-10.8-3.9c-4.7,0.6-7.8,3.3-9.3,7.9c-1.5,4.6-1.6,11.3-0.5,20.1c1.1,8.6,3.1,15,5.9,19.1
		c2.8,4.1,6.5,5.9,11.1,5.3c5.2-0.7,8.9-2.7,11.3-6.1c2.8-4,3.7-10,2.7-17.9L246.4,31.5z"/>
	<path d="M263.7,33.6l-0.6,16.5c0,1.1,0,1.8,0.2,2.1c0.1,0.2,0.4,0.3,0.8,0.5c0.4,0.2,1.1,0.3,2.2,0.5c1.1,0.1,2,0.2,2.8,0.3l0,0.7
		l-21.9-0.8l0-0.7c1.6,0.1,3,0.1,4.3,0c1.3-0.1,2.4-0.2,3.3-0.5c0.3-0.3,0.5-1.1,0.6-2.4L257,6.8c0-0.7,0-1.3,0-1.8
		c0-0.5-0.1-0.9-0.3-1.2c-0.4-0.6-0.7-0.9-1-1c-1-0.3-3.2-0.5-6.5-0.6l0-0.7l15.8-0.8l-1,29c0.4-2.2,1.3-4.2,2.6-6.2
		c1.7-2.5,3.6-3.8,5.8-3.9c0.4,0,0.9,0,1.4,0c0.5,0,0.9,0,1.1,0c3.8,0.1,6.7,1.3,8.5,3.4c1.5,1.8,2.2,3.9,2.1,6.3l-0.8,21.8
		c0,1.1,0,1.8,0.2,2.1c0.1,0.2,0.4,0.3,0.8,0.5c0.4,0.2,1.2,0.3,2.4,0.5c1.1,0.2,2.3,0.2,3.4,0.3l0,0.7l-21.1-0.8l0-0.7
		c0.9,0,1.9,0,3-0.1s2.2-0.3,3.1-0.6c0.3-0.3,0.5-1.1,0.6-2.4l0.8-22.2c0.1-2.4-0.1-4.1-0.5-5.3c-0.7-1.8-2.1-2.8-4.2-2.9
		c-2.3-0.1-4.3,1.4-6.1,4.3C265.4,27,264.3,30,263.7,33.6z"/>
	<path d="M314.2,35.9l0.9-4.7c0.4-2.2,0.4-3.7-0.2-4.6c-0.5-0.9-1.9-1.6-4.2-2c-1.8-0.4-3.5-0.3-5.1,0.1c-1.5,0.4-2.6,1.2-3.3,2.3
		c0.2,0,0.5,0,0.8,0.1c1,0.2,1.8,0.8,2.3,1.7c0.5,0.9,0.6,1.9,0.4,2.9c-0.2,1.2-0.8,2.1-1.8,2.7c-1,0.6-2,0.8-3.1,0.6
		c-0.7-0.1-1.3-0.4-1.8-0.9c-1.4-1.3-1.9-2.8-1.6-4.3c0.1-0.8,0.5-1.6,1-2.5c1.2-1.9,3.3-3.1,6.5-3.5c2.3-0.3,4.5-0.2,6.7,0.2
		c4,0.8,6.8,2.1,8.6,4c1.6,1.7,2.1,3.6,1.8,5.6l-3.5,17.7c-0.6,3.2-0.9,5.2-0.9,6c0,1.9,0.8,3,2.4,3.3c1.4,0.3,2.5-0.3,3.2-1.6
		c0.8-1.3,1.4-3.4,1.9-6.1c0.1-0.7,0.3-1.5,0.4-2.2c0.1-0.8,0.3-1.5,0.4-2.3l0.1-0.7l1,0.2l-0.7,3.5c-0.2,1.1-0.4,2.2-0.5,3.2
		c-0.6,3.1-1.4,5.1-2.4,6.1c-1.2,1.2-3.3,1.4-6.3,0.9c-2.3-0.5-4-1.2-4.9-2.2c-1.2-1.2-1.7-3-1.7-5.4c-1.6,2.4-3.7,3.8-6.1,4.3
		c-1.4,0.3-3.3,0.2-5.5-0.3c-2.3-0.4-4.1-1.4-5.6-2.8c-2-1.9-2.7-4.3-2.2-7.3c0.6-2.9,2.2-5.1,4.8-6.7c2.6-1.5,5.6-2.1,8.8-1.7
		c3.3,0.4,5.5,0.3,6.7,0C313,39.2,313.8,38,314.2,35.9z M311.1,50.4l2.1-10.8c-0.8,0.7-1.9,1.1-3.2,1c-1.3-0.1-2.6-0.1-3.8-0.2
		c-1.6,0.1-3,0.7-4.2,1.9c-1.4,1.4-2.4,3.6-2.9,6.5c-0.6,3.1-0.7,5.3-0.3,6.5c0.4,1.2,1.3,2,2.6,2.2c2,0.4,4-0.1,6-1.5
		C309.4,54.8,310.6,52.9,311.1,50.4z"/>
	<path d="M356.7,42.2c0.4-1.2,0.6-2,0.4-2.5c-0.1-0.5-0.5-0.9-1.1-1.2c-0.6-0.3-2.7-1.1-6.2-2.4l0.2-0.7l15.7,4.7l-9.4,26.2
		c-0.2,0.7-0.5,1.3-0.7,2c-0.2,0.7-0.3,1.2-0.2,1.6l0.2,0.9c0.4,0.5,2.3,1.4,5.7,2.7l-0.2,0.7l-14.4-3.8l3.5-9.8
		c-1.1,2-2.5,3.7-4.4,5c-2.4,1.7-4.8,2.3-7.2,1.7c-0.3-0.1-0.6-0.1-1-0.3l-0.9-0.3c-3-1.1-5.1-2.9-6.1-5.4c-0.9-2.1-0.9-4.3-0.1-6.6
		l7.3-20.2c0.3-0.9,0.4-1.6,0.3-2c-0.1-0.4-0.4-0.7-0.8-1c-0.4-0.2-1.6-0.7-3.6-1.4l-1.8-0.6l0.2-0.7l14.3,4.2l-9.2,25.4
		c-0.9,2.6-1.3,4.5-1,5.7c0.3,1.2,1.1,2,2.3,2.4c2.3,0.8,4.8,0.1,7.4-2.1c2.6-2.2,4.5-5,5.7-8.2L356.7,42.2z"/>
	<path d="M382.1,64.2L374,78.6c-0.5,1-0.8,1.6-0.8,2c0,0.2,0.2,0.5,0.4,0.8c0.3,0.3,0.9,0.8,1.7,1.4c0.9,0.6,1.7,1.1,2.4,1.5
		l-0.4,0.6l-19.1-10.7l0.4-0.6c1.4,0.8,2.7,1.4,3.8,2c1.2,0.5,2.2,0.9,3.2,1.1c0.4-0.1,1-0.7,1.6-1.8l21.1-37.6
		c0.4-0.6,0.6-1.2,0.9-1.6c0.2-0.4,0.3-0.8,0.2-1.2c-0.1-0.7-0.2-1.1-0.4-1.4c-0.7-0.7-2.6-1.9-5.5-3.6l0.4-0.6l14.4,6.5l-14.2,25.3
		c1.4-1.7,3.1-3.2,5.2-4.3c2.6-1.4,4.9-1.7,6.9-0.8c0.4,0.2,0.8,0.4,1.3,0.6c0.5,0.2,0.8,0.4,1,0.5c3.3,1.9,5.3,4.2,6,6.9
		c0.5,2.2,0.1,4.4-1.1,6.6l-10.7,19c-0.5,1-0.8,1.6-0.8,2c0,0.2,0.2,0.5,0.5,0.8c0.3,0.4,0.9,0.9,1.9,1.5c0.9,0.7,1.9,1.3,2.9,1.8
		l-0.4,0.6l-18.4-10.4l0.4-0.6c0.8,0.4,1.7,0.9,2.7,1.3c1.1,0.5,2,0.8,3,0.9c0.4-0.1,1-0.7,1.6-1.8L396.9,66c1.2-2.1,1.8-3.7,1.9-5
		c0.2-2-0.6-3.5-2.5-4.5c-2-1.1-4.5-0.8-7.4,1.1C386.6,59.1,384.3,61.3,382.1,64.2z"/>
	<path d="M425.9,89.5l3-3.7c1.4-1.7,2-3.1,1.9-4.1c-0.1-1-1-2.3-2.8-3.7c-1.5-1.2-3-1.9-4.6-2.2c-1.6-0.3-2.9-0.1-4,0.6
		c0.2,0.1,0.4,0.2,0.7,0.4c0.8,0.6,1.2,1.5,1.2,2.5c0,1-0.3,2-1,2.8c-0.7,0.9-1.7,1.5-2.8,1.5c-1.1,0.1-2.1-0.2-3-0.9
		c-0.6-0.4-0.9-1-1.1-1.6c-0.6-1.8-0.4-3.3,0.6-4.6c0.5-0.6,1.1-1.2,2-1.8c1.9-1.2,4.4-1.2,7.4-0.1c2.2,0.8,4.1,1.9,5.9,3.3
		c3.2,2.5,5.1,5,5.8,7.5c0.6,2.2,0.3,4.1-1,5.8l-11.2,14.2c-2,2.6-3.2,4.2-3.6,4.9c-0.9,1.7-0.7,3,0.6,4c1.1,0.9,2.3,0.9,3.6,0.1
		c1.3-0.8,2.8-2.4,4.5-4.5c0.5-0.6,0.9-1.2,1.4-1.8c0.4-0.6,0.9-1.2,1.4-1.9l0.5-0.6l0.8,0.6l-2.2,2.8c-0.7,0.9-1.4,1.8-2,2.6
		c-2,2.5-3.6,3.9-4.9,4.3c-1.6,0.5-3.6-0.2-6-2.1c-1.9-1.5-3-2.9-3.4-4.2c-0.5-1.6-0.2-3.5,0.9-5.6c-2.5,1.4-5,1.7-7.4,1
		c-1.4-0.4-3-1.3-4.8-2.8c-1.8-1.4-3-3.1-3.7-5c-0.9-2.6-0.5-5.1,1.4-7.5c1.8-2.3,4.3-3.6,7.3-3.7c3-0.1,5.9,0.7,8.6,2.5
		c2.7,1.8,4.7,2.8,6,3.1C423.3,91.8,424.6,91.1,425.9,89.5z M416.5,100.9l6.8-8.6c-1.1,0.3-2.2,0.1-3.3-0.5
		c-1.1-0.6-2.2-1.3-3.3-1.9c-1.5-0.7-3-0.8-4.6-0.3c-1.9,0.6-3.7,2.1-5.6,4.4c-2,2.5-3.1,4.4-3.3,5.7c-0.2,1.3,0.2,2.3,1.3,3.2
		c1.6,1.3,3.6,1.8,6,1.4C413,104,415,102.9,416.5,100.9z"/>
	<path d="M446.1,113l-11.8,11c-0.8,0.7-1.3,1.3-1.4,1.6c0,0.2,0,0.5,0.2,0.9c0.2,0.4,0.6,1,1.2,1.9c0.6,0.9,1.2,1.6,1.8,2.2
		l-0.5,0.5l-14.3-15.4l0.5-0.5c0.8,0.9,1.7,1.7,2.5,2.5c0.9,0.8,1.8,1.4,2.6,1.9c0.4,0.1,1.1-0.4,2.1-1.3l18.3-17
		c0.4-0.3,0.7-0.7,1.1-1c0.3-0.4,0.5-0.7,0.6-1.1l0.3-0.9c-0.1-0.7-1.4-2.3-3.8-5l0.5-0.5l11.1,10l-7.7,7.1c1.9-1.4,3.9-2.2,6-2.7
		c2.9-0.6,5-0.3,6.3,0.8c1.3,1.1,2.1,1.8,2.4,2.2c2.3,2.5,3.4,5.2,3.3,8.1c-0.1,2.4-1.1,4.5-2.8,6.1l-16,14.8
		c-0.8,0.7-1.3,1.3-1.4,1.6c0,0.2,0,0.5,0.2,0.9c0.2,0.4,0.6,1.1,1.3,2c0.7,0.9,1.4,1.8,2.1,2.5l-0.5,0.5l-14.3-15.4l0.5-0.5
		c0.6,0.6,1.3,1.3,2.2,2.1s1.7,1.4,2.5,1.8c0.4,0.1,1.1-0.4,2.1-1.3l15.3-14.2c1.9-1.8,3.3-3.3,4-4.6c1.2-2.1,1.1-3.8-0.2-5.2
		c-1.7-1.8-4.3-2.3-7.6-1.3C452.2,109.2,449.3,110.7,446.1,113z"/>
</g>
<g>
	<path d="M56,427.8c4,1.3,6.3,2,6.8,2.1l-15.3,9.3l-0.1-0.7c3.7-3.1,6.1-6.9,7.2-11.4c1.1-4.4,0.6-8.4-1.6-11.9
		c-1.5-2.4-3.3-4.2-5.5-5.3c-2.7-1.4-5.3-1.3-7.9,0.3c-2.5,1.5-3.8,4-4,7.3c-0.1,2.8,0.6,6.8,2.3,11.8c2.1,6.6,3.1,11.1,2.9,13.7
		c-0.3,4.2-2.9,7.7-7.8,10.7c-4.6,2.8-9.1,3.5-13.4,2c-3.7-1.2-6.6-3.6-8.8-7.2c-1.7-2.8-2.7-5.5-3.2-8.2c-0.4-2.7-0.1-5.5,1-8.3
		c-5.4-0.5-8.2-0.8-8.4-0.9l19.3-11.8l0.4,0.5c-3.5,3.3-6.1,6.3-7.8,8.9c-1.5,2.2-2.5,4.3-3.1,6.4c-1.1,4.1-0.3,8.5,2.6,13.2
		c1.3,2.2,3.3,3.8,5.8,4.7c3,1.1,5.7,0.8,8.2-0.7c3.1-1.9,4.6-4.8,4.7-8.7c0-2.7-0.8-6.9-2.4-12.6c-1.6-5.7-2.3-9.9-2.1-12.7
		c0.4-4.1,2.6-7.3,6.6-9.8c3.6-2.2,7.4-2.8,11.5-1.8c4.1,1,7.2,3.3,9.3,6.8c1.8,3,2.9,5.7,3.2,8.2C56.2,422.8,56.2,424.8,56,427.8z"
		/>
	<path d="M59.6,483.5c-4.1,3.4-8.6,4.8-13.6,4.3c-4.6-0.5-8.2-2.4-10.9-5.6c-2.7-3.3-4-7.1-3.8-11.4c0.2-5.1,2.5-9.4,6.8-13
		c4.1-3.4,8.6-4.8,13.6-4.2c4.5,0.6,8.1,2.4,10.8,5.6c2.7,3.2,4,7,3.8,11.4C66,475.7,63.8,480,59.6,483.5z M54.1,477
		c4.6-3.9,7.6-7,8.8-9.4c1.4-2.7,1.1-5.4-1-7.8c-1.9-2.3-4.3-3-7.2-2.2c-2.9,0.8-6.6,3.1-11.1,6.9c-4.6,3.9-7.6,7.1-9,9.7
		c-1.4,2.6-1,5.2,1,7.6c1.9,2.3,4.3,3,7.3,2.2C45.8,483.1,49.6,480.8,54.1,477z"/>
	<path d="M83.8,484.9l-19.6,21c-0.8,0.8-1.2,1.4-1.3,1.7c0,0.2,0.1,0.5,0.3,0.9c0.6,1.1,2.1,2.8,4.6,5.1l-0.5,0.5l-17-15.9l0.5-0.5
		c2.4,2.2,4.2,3.6,5.3,4.1l0.6,0.2c0.4,0,1.1-0.4,2-1.4l19.6-21l-5.6-5.3l1-1l5.6,5.3l3.3-3.5c2.5-2.7,5.7-4.3,9.6-4.7
		c3.9-0.5,7.1,0.4,9.6,2.7c1.6,1.5,2.6,2.9,3.2,4.3c0.5,1.4,0.6,2.7,0.2,3.7c-0.4,1-0.9,1.9-1.5,2.5c-1,1.1-2.4,1.5-4.2,1.2
		c-0.7-0.1-1.3-0.5-1.9-1c-0.8-0.7-1.2-1.6-1.3-2.7s0.3-2.1,1.1-2.9c1.5-1.6,3.1-1.8,4.9-0.6c0.2-0.8,0.3-1.5,0.3-2
		c-0.1-0.5-0.4-1-1-1.6c-1.6-1.5-3.1-2-4.4-1.6s-3.2,1.8-5.5,4.2l-6.8,7.3l5.6,5.2l-1,1L83.8,484.9z"/>
	<path d="M103.4,520.4l-2.3,3c-0.8,1-1.5,2-2.1,2.9c-2.3,3-4.2,4.9-5.8,5.5c-2.1,0.8-4.6,0.2-7.3-1.9c-2.6-2-4.1-4.1-4.3-6.3
		c-0.3-2.2,0.5-4.5,2.3-6.8L98,498.3l-5.2-4l0.4-0.6c4.2,1.8,8.5,1.8,12.8-0.1c3.4-1.5,6.4-3.9,8.9-7.2l1.1,0.8l-10.5,13.8l7.5,5.7
		l-1.4,1.9l-7.5-5.7l-13.4,17.7c-1.8,2.3-2.8,3.9-3.2,4.8c-0.8,2-0.5,3.5,1,4.7c1.8,1.3,3.6,1.3,5.6-0.2c1.4-1,3.4-3.3,6.2-7
		l2.4-3.1L103.4,520.4z"/>
	<path d="M132.9,528.6l-19.4,19l-1.4-0.7l4.6-33.5c0.2-1.5,0.1-2.6-0.3-3.1c-0.4-0.6-1.8-1.5-4.1-2.8l0.4-0.7l17.3,9.4l-0.4,0.7
		c-1.1-0.6-2.2-1.2-3.4-1.8c-1.1-0.6-1.9-0.6-2.2,0c-0.2,0.3-0.3,0.8-0.4,1.7l-3.5,22.9l13.1-12.8l0.9-3.9c0.3-1.5,0.4-2.4,0.2-2.9
		c-0.2-0.4-0.8-1-2-1.6l-1.7-0.9l0.4-0.7l16,8.7l-0.4,0.7c-1.1-0.6-2.2-1.2-3.3-1.8c-1.1-0.6-1.8-0.6-2.1,0
		c-0.2,0.3-0.3,0.9-0.5,1.7l-4.7,21.4l12.6-11.5c1.5-1.4,2.5-2.5,3-3.4c1.1-1.9,0-3.8-3.2-5.5l0.4-0.7l12,6.6l-0.4,0.7
		c-1.8-1-3.5-1.3-5-1c-1.5,0.3-3.8,1.9-7,4.8l-19.9,18.2l-1.4-0.7L132.9,528.6z"/>
	<path d="M176.8,549.3l1.5-4.5c0.7-2.1,0.9-3.6,0.4-4.5c-0.4-1-1.7-1.8-3.9-2.5c-1.8-0.6-3.5-0.8-5-0.6c-1.6,0.2-2.8,0.9-3.6,1.9
		c0.2,0,0.5,0.1,0.8,0.2c1,0.3,1.7,1,2,2c0.4,1,0.4,2,0,3c-0.4,1.1-1.1,1.9-2.1,2.4c-1,0.5-2.1,0.5-3.1,0.2
		c-0.7-0.2-1.2-0.6-1.6-1.2c-1.2-1.5-1.5-3-1-4.5c0.2-0.7,0.7-1.5,1.3-2.3c1.4-1.8,3.7-2.6,6.9-2.6c2.3,0,4.5,0.4,6.6,1.1
		c3.8,1.3,6.5,3,8,5.1c1.3,1.9,1.6,3.8,1,5.8l-5.8,17.1c-1.1,3.1-1.6,5-1.7,5.8c-0.2,1.9,0.4,3.1,1.9,3.6c1.3,0.5,2.5,0.1,3.4-1.2
		c0.9-1.2,1.9-3.2,2.7-5.8c0.2-0.7,0.5-1.4,0.7-2.2c0.2-0.7,0.5-1.5,0.7-2.3l0.2-0.7l0.9,0.3l-1.2,3.4c-0.4,1.1-0.7,2.1-1,3.1
		c-1,3-2.1,4.9-3.2,5.7c-1.4,1-3.5,1-6.4,0c-2.2-0.8-3.8-1.7-4.6-2.9c-1-1.4-1.3-3.2-1-5.6c-1.9,2.1-4.1,3.3-6.6,3.4
		c-1.5,0.1-3.3-0.3-5.5-1s-3.9-1.9-5.1-3.5c-1.8-2.2-2.1-4.7-1.2-7.5c1-2.8,2.8-4.8,5.7-6c2.8-1.1,5.8-1.3,9-0.5
		c3.2,0.8,5.4,1.1,6.7,0.9C175.2,552.4,176.1,551.3,176.8,549.3z M171.8,563.3l3.5-10.4c-0.9,0.6-2,0.8-3.3,0.6
		c-1.3-0.2-2.5-0.5-3.7-0.7c-1.6-0.1-3.1,0.3-4.4,1.3c-1.6,1.2-2.8,3.2-3.8,6c-1,3-1.4,5.2-1.2,6.4c0.2,1.3,1,2.1,2.3,2.6
		c2,0.7,4,0.5,6.2-0.6C169.5,567.4,171,565.7,171.8,563.3z"/>
	<path d="M202.1,550.3c0.2-1.1,0.2-1.8,0.1-2.1c-0.3-0.6-0.6-1-0.9-1.2c-0.9-0.5-3.1-1-6.5-1.7l0.1-0.7l15.8,1.9l-2,10.2
		c0.6-2.2,1.8-4.1,3.5-5.7c2.3-2.3,4.8-3.2,7.5-2.7c1,0.2,2.1,0.8,3.1,1.7c1,0.9,1.7,1.9,1.9,3c0.2,1.1,0.2,2,0.1,2.9
		c-0.4,2.1-1.6,3.4-3.6,3.9c-0.5,0.1-1.1,0.1-1.8,0c-1.1-0.2-1.9-0.8-2.5-1.7c-0.6-0.9-0.8-2.1-0.5-3.6c0.2-1,0.7-1.9,1.7-2.7
		c0.9-0.8,1.8-1,2.8-0.6c-0.1-1.2-0.9-1.9-2.5-2.3c-1.5-0.3-3.3,0.5-5.3,2.5c-2.6,2.5-4.4,6.1-5.3,10.6l-3,15
		c-0.2,1.1-0.3,1.8-0.2,2.1c0.1,0.2,0.3,0.4,0.6,0.6c1.1,0.6,3.3,1.2,6.9,1.9l-0.1,0.7l-23.5-4.6l0.1-0.7c1.6,0.3,3,0.5,4.3,0.7
		c1.3,0.1,2.4,0.1,3.4,0c0.4-0.2,0.7-1,0.9-2.3L202.1,550.3z"/>
	<path d="M233.3,568c-0.4,5.9,0,10.2,1.2,12.9s3.2,4.2,6,4.4c3,0.2,5.7-0.6,8.2-2.5c3-2.3,4.6-5.5,4.9-9.7l0.7,0
		c-0.3,4.1-1.9,7.3-4.7,9.8c-2.8,2.4-6.4,3.5-10.8,3.2c-3.7-0.3-6.9-1.9-9.7-4.9c-3.3-3.5-4.8-7.9-4.4-13.2
		c0.4-5.7,2.5-10.3,6.3-13.6c3.3-2.9,6.8-4.2,10.6-3.9c3.5,0.3,6.4,1.5,8.6,3.8c3.2,3.3,4.6,8.4,4.1,15.3L233.3,568z M247.4,568.1
		c0.4-5.3,0.2-9.4-0.5-12.2s-2.2-4.4-4.3-4.5c-3-0.2-5.1,1-6.6,3.5c-1.4,2.6-2.3,6.6-2.7,12.2L247.4,568.1z"/>
	<path d="M314.5,581l-31.4,5.5l-0.1-0.8c2.4-0.4,4.5-0.9,6.2-1.3c1.7-0.5,2.8-0.9,3.4-1.2c0.6-0.4,0.9-0.7,1-0.9
		c0.1-0.4,0.1-1.4-0.2-3.1l-7.3-41.5c-0.3-1.5-0.5-2.5-0.8-2.9c-0.1-0.2-0.5-0.4-1.2-0.5c-1.8-0.3-5.2-0.1-10,0.8l-0.1-0.7l31.5-5.5
		c6.1-1.1,12,0.2,17.7,3.8c6.6,4.1,10.5,10.2,11.9,18.1c1.4,7.9,0,14.6-4.2,20.3C326.9,576.5,321.4,579.7,314.5,581z M314.4,580.2
		c5.1-0.9,8.5-3.6,10.1-8.2c1.6-4.6,1.7-11,0.2-19.3c-1.4-7.9-3.7-13.8-6.8-17.8c-3.4-4.3-7.5-6-12.4-5.2c-2.6,0.5-4.6,0.8-5.9,1.2
		c-1.4,0.3-2.3,0.6-2.8,1c-0.5,0.3-0.9,0.7-1,1.1s0,1.5,0.3,3.1l7.3,41.5c0.3,1.6,0.5,2.6,0.8,3c0.3,0.5,0.7,0.7,1.3,0.9
		c0.6,0.1,1.8,0,3.5-0.2C310.7,580.8,312.5,580.5,314.4,580.2z"/>
	<path d="M348.2,554.7c2,5.5,4.1,9.3,6.3,11.3c2.2,2,4.7,2.5,7.3,1.5c2.8-1,5-2.9,6.4-5.6c1.8-3.3,1.9-6.9,0.5-10.9l0.6-0.2
		c1.4,3.9,1.3,7.5-0.3,10.8c-1.6,3.4-4.4,5.8-8.5,7.3c-3.4,1.3-7.1,1.1-10.8-0.5c-4.5-1.9-7.6-5.3-9.4-10.3c-2-5.4-1.9-10.4,0.1-15
		c1.8-4,4.5-6.6,8.1-7.9c3.3-1.2,6.5-1.2,9.4-0.1c4.3,1.7,7.6,5.8,10,12.3L348.2,554.7z M361.2,548.9c-1.8-5-3.6-8.6-5.5-10.9
		c-1.8-2.3-3.8-3.1-5.7-2.4c-2.8,1-4.3,3-4.5,5.9c-0.2,2.9,0.6,7,2.5,12.2L361.2,548.9z"/>
	<path d="M393.5,554.1l-24.7-22.8c-1-0.9-1.6-1.4-1.8-1.6c-0.5-0.3-1.5-0.1-2.9,0.6l-1.7,0.9l-0.4-0.7l16.7-8.6l0.4,0.7
		c-1.1,0.6-2.2,1.2-3.4,1.8c-1.1,0.6-1.5,1.2-1.2,1.8l1.2,1.2l16.6,15.2l-2.5-16.9c-0.3-2-0.7-3.5-1.2-4.4c-1-1.9-3.1-2.1-6.4-0.4
		l-0.4-0.7l12.3-6.4l0.4,0.7c-1.9,1-3.1,2.2-3.6,3.6c-0.6,1.4-0.5,4.3,0.1,8.5l3.9,26.6L393.5,554.1z"/>
	<path d="M411.3,523.7c3.3,4.8,6.3,7.9,9,9.3c2.6,1.4,5.1,1.3,7.5-0.4c2.5-1.7,4.1-4.1,4.8-7c0.9-3.6,0.1-7.2-2.3-10.7l0.5-0.4
		c2.3,3.4,3.2,6.9,2.5,10.5s-2.8,6.7-6.4,9.2c-3,2.1-6.5,2.8-10.6,2.2c-4.8-0.7-8.7-3.2-11.7-7.6c-3.3-4.7-4.5-9.6-3.7-14.5
		c0.7-4.3,2.7-7.5,5.8-9.7c2.9-2,5.9-2.8,9.1-2.5c4.6,0.6,8.8,3.7,12.8,9.4L411.3,523.7z M422.3,514.9c-3-4.4-5.7-7.4-8.1-9.2
		c-2.4-1.8-4.4-2-6.1-0.8c-2.4,1.7-3.4,4-2.9,6.8c0.5,2.9,2.3,6.6,5.5,11.2L422.3,514.9z"/>
	<path d="M451.9,508.7c0.7,0.8,1.2,1.3,1.6,1.5c0.2,0.1,0.5,0,0.9-0.1c1.1-0.5,3-1.9,5.8-4.2l0.5,0.6L442.6,522l-0.5-0.6
		c1.2-1,2.2-2,3.1-2.9c0.9-0.9,1.6-1.8,2.1-2.7c0.1-0.4-0.3-1.1-1.2-2.1l-28.8-33.2c-0.7-0.8-1.3-1.3-1.9-1.4c-0.5-0.1-1-0.1-1.3,0
		c-0.9,0.4-2.7,1.8-5.2,4l-0.5-0.6l11-11.4L451.9,508.7z"/>
	<path d="M474.5,466.4c3.9,3.6,5.9,7.9,6.1,13c0.1,4.6-1.3,8.4-4.1,11.5c-2.9,3.2-6.5,4.9-10.8,5.3c-5,0.4-9.6-1.2-13.8-5
		c-3.9-3.6-5.9-7.9-6-12.9c-0.1-4.6,1.3-8.4,4.1-11.5c2.8-3.1,6.4-4.9,10.8-5.3C465.9,461,470.4,462.7,474.5,466.4z M468.7,472.7
		c-4.5-4.1-8-6.6-10.5-7.5c-2.9-1-5.5-0.3-7.6,2c-2,2.2-2.4,4.7-1.2,7.4c1.2,2.8,3.9,6.1,8.3,10.1c4.4,4.1,8.1,6.6,10.8,7.6
		c2.8,1,5.2,0.3,7.4-2.1c2-2.2,2.4-4.7,1.2-7.5C475.9,480.1,473.1,476.7,468.7,472.7z"/>
	<path d="M480.1,447.9c-2.2-1.9-3.8-3.9-4.8-6c-1.4-3-1.4-5.7,0.2-8c2.2-3.3,5.3-5.1,9.2-5.5c4.3-0.5,8.8,0.9,13.5,4.1
		c3.3,2.2,5.7,5.4,7.2,9.5c1.8,4.9,1.5,9.2-1.1,13c-1.4,2-3.5,2.9-6.4,2.6c-2-0.2-4.1-0.8-6.2-1.9l18.6,12.6c0.9,0.6,1.5,0.9,1.9,1
		c0.2,0,0.5-0.1,0.8-0.3c1-0.7,2.5-2.6,4.5-5.6l0.6,0.4l-13.4,19.8l-0.6-0.4c0.9-1.3,1.6-2.5,2.3-3.7c0.6-1.1,1.1-2.2,1.3-3.1
		c0-0.4-0.6-1-1.7-1.7l-35.2-23.9c-0.9-0.6-1.6-0.9-2.2-0.9c-0.5,0-1,0.1-1.2,0.4c-0.8,0.7-2.1,2.4-4,5.2l-0.6-0.4l7.7-13.8
		L480.1,447.9z M485.7,451.1c4.5,3.1,8.4,4.9,11.4,5.5c3.1,0.6,5.2,0,6.4-1.8c1.5-2.2,1.5-4.3,0-6.5c-1.5-2.2-4.8-5.1-10.2-8.7
		c-4.8-3.3-8.4-5.3-10.6-6.1c-3.3-1.2-5.7-0.6-7.2,1.6c-1,1.5-0.8,3.7,0.7,6.5C478.1,444.9,481.2,448.1,485.7,451.1z"/>
	<path d="M504.1,420.9c5.3,2.6,9.4,3.9,12.4,3.8s5.1-1.4,6.4-3.9c1.3-2.7,1.6-5.5,0.8-8.5c-1-3.6-3.4-6.3-7.2-8.2l0.3-0.6
		c3.7,1.8,6.1,4.5,7.3,8s0.8,7.2-1.1,11.2c-1.6,3.3-4.4,5.7-8.2,7.1c-4.5,1.7-9.1,1.4-13.9-0.9c-5.1-2.5-8.6-6.2-10.2-10.9
		c-1.4-4.1-1.3-7.9,0.4-11.3c1.6-3.2,3.8-5.4,6.7-6.6c4.3-1.7,9.5-1.1,15.7,2L504.1,420.9z M509.4,407.8c-4.8-2.4-8.6-3.7-11.5-4.1
		c-2.9-0.4-4.8,0.4-5.8,2.2c-1.3,2.7-1.1,5.1,0.8,7.4c1.8,2.3,5.3,4.6,10.3,7.1L509.4,407.8z"/>
	<path d="M505.6,386.5c-1-0.4-1.7-0.5-2.1-0.4c-0.6,0.2-1.1,0.4-1.3,0.7c-0.6,0.8-1.5,2.9-2.6,6.2l-0.7-0.2l4.1-15.3l9.8,3.4
		c-2-0.9-3.8-2.4-5.2-4.3c-2-2.6-2.5-5.2-1.6-7.8c0.3-1,1-1.9,2.1-2.8c1-0.9,2.1-1.4,3.2-1.4c1.1,0,2.1,0.1,2.8,0.3
		c2.1,0.7,3.2,2.1,3.4,4.1c0.1,0.5,0,1.1-0.3,1.8c-0.4,1-1,1.8-2,2.3c-1,0.5-2.2,0.5-3.6,0c-0.9-0.3-1.7-1-2.4-2s-0.8-2-0.2-2.8
		c-1.2-0.1-2.1,0.7-2.6,2.2c-0.5,1.5,0,3.4,1.7,5.6c2.1,2.9,5.4,5.2,9.8,6.7l14.5,5.1c1,0.4,1.7,0.5,2.1,0.5c0.2,0,0.4-0.2,0.7-0.5
		c0.7-1,1.7-3.1,2.9-6.5l0.7,0.2l-7.9,22.6l-0.7-0.2c0.5-1.5,0.9-2.9,1.3-4.1c0.3-1.2,0.5-2.4,0.5-3.4c-0.2-0.4-0.9-0.8-2.1-1.3
		L505.6,386.5z"/>
</g>
</svg>
